<?xml version="1.0" standalone="no"?>
<!DOCTYPE svg PUBLIC "-//W3C//DTD SVG 20010904//EN"
 "http://www.w3.org/TR/2001/REC-SVG-20010904/DTD/svg10.dtd">
<svg version="1.0" xmlns="http://www.w3.org/2000/svg"
 width="1000.000000pt" height="1000.000000pt" viewBox="0 0 1000.000000 1000.000000"
 preserveAspectRatio="xMidYMid meet">
<metadata>
Created by potrace 1.14, written by Peter Selinger 2001-2017
</metadata>
<g transform="translate(0.000000,1000.000000) scale(0.100000,-0.100000)"
fill="#000000" stroke="none">
<path d="M5552 7931 c-51 -13 -98 -66 -127 -140 -43 -113 -267 -715 -269 -726
-2 -5 -7 -19 -11 -30 -11 -29 -58 -155 -100 -270 -20 -55 -40 -109 -45 -120
-5 -11 -20 -51 -33 -90 -29 -81 -121 -334 -142 -385 -7 -19 -29 -78 -48 -130
-58 -157 -133 -359 -170 -460 -50 -136 -129 -349 -202 -545 -35 -93 -111 -300
-169 -460 -59 -159 -111 -299 -116 -310 -5 -11 -56 -150 -115 -310 -58 -159
-112 -306 -120 -325 -15 -38 -345 -931 -377 -1020 -19 -53 -23 -67 -32 -109
-8 -34 24 -119 56 -150 23 -22 93 -53 292 -126 143 -53 270 -101 281 -106 181
-80 302 -68 354 35 18 37 141 364 582 1551 65 176 150 406 190 510 39 105 79
213 88 240 18 50 59 159 131 350 21 55 50 134 65 175 14 41 44 120 65 175 21
55 70 186 108 290 122 329 346 933 549 1475 223 598 220 587 202 652 -11 44
-46 98 -63 98 -5 0 -17 6 -25 14 -9 7 -81 36 -161 64 -80 28 -221 78 -315 112
-93 33 -179 63 -190 66 -40 11 -101 13 -133 5z"/>
<path d="M2760 6531 c-30 -11 -127 -55 -215 -99 -88 -44 -236 -116 -330 -162
-93 -46 -303 -148 -465 -228 -162 -79 -367 -179 -455 -222 -88 -43 -299 -146
-470 -230 -171 -83 -338 -165 -373 -182 -71 -34 -117 -83 -128 -137 -12 -57
-12 -530 0 -576 6 -22 20 -55 31 -74 21 -35 -13 -18 1005 -519 1531 -753 1390
-685 1455 -696 41 -8 98 10 135 40 17 15 48 63 69 108 261 549 271 573 252
644 -24 87 -45 100 -566 347 -49 24 -153 73 -230 110 -77 37 -201 96 -275 132
-74 35 -202 96 -283 136 l-149 71 54 25 c29 13 94 43 143 66 50 24 142 66 205
95 187 84 223 101 260 120 19 10 76 36 125 58 50 22 143 65 209 96 65 31 120
56 122 56 2 0 61 27 130 60 69 33 130 60 135 60 5 0 29 20 53 44 64 64 76 142
36 231 -53 118 -124 276 -177 395 -35 80 -76 160 -89 177 -50 65 -126 84 -214
54z"/>
<path d="M7120 6537 c-74 -25 -95 -53 -173 -227 -30 -69 -88 -197 -128 -285
-63 -141 -72 -167 -72 -221 -1 -61 19 -106 63 -142 18 -14 126 -68 295 -145
66 -30 154 -70 195 -90 41 -19 125 -57 185 -85 61 -27 162 -74 225 -104 63
-30 208 -96 322 -148 l207 -95 -148 -71 c-81 -39 -170 -81 -197 -94 -27 -12
-58 -27 -69 -33 -34 -18 -157 -78 -220 -107 -56 -26 -140 -66 -495 -237 -74
-36 -172 -83 -217 -104 -45 -22 -96 -53 -112 -70 -37 -37 -55 -98 -46 -158 7
-43 245 -570 289 -638 38 -58 118 -89 189 -74 23 6 209 92 412 192 204 100
487 239 630 309 143 70 422 207 620 305 198 97 439 215 535 262 96 47 190 97
208 110 35 26 58 64 67 109 11 58 6 542 -6 583 -21 71 -58 96 -339 234 -569
278 -693 338 -910 445 -124 60 -324 158 -445 217 -847 414 -785 388 -865 362z"/>
</g>
</svg>
