<svg id="Layer_1" data-name="Layer 1" xmlns="http://www.w3.org/2000/svg" viewBox="0 0 483.78 98.01"><path d="M183.58,70.26h-8.74a8.75,8.75,0,0,1-8.74-8.74V0H148.63V61.52a26.24,26.24,0,0,0,26.21,26.21h26.21V0H183.58Z"/><path d="M244.52,0H218.31V87.75h17.47V61.41h17.48V87.75h17.47V26.21A26.24,26.24,0,0,0,244.52,0Zm-8.74,43.94V17.47h8.74a8.75,8.75,0,0,1,8.74,8.74V43.94Z"/><path d="M354.55.11V61.64a26,26,0,0,0,1.5,8.73,26.34,26.34,0,0,0,16,16,25.9,25.9,0,0,0,8.29,1.49h26.63V70.37H380.31A8.76,8.76,0,0,1,372,61.64V53h34.92V35.48H372V17.58h34.92V.11H354.55Z"/><path d="M35.47,35.12H28.06a8.78,8.78,0,0,1,.45-17.54H57.33V0H28.51A26.35,26.35,0,0,0,2.19,26.35,26,26,0,0,0,3.7,35.11,26.32,26.32,0,0,0,28.06,52.65h7.41A8.78,8.78,0,0,1,35,70.2H6.19V87.75H35A26.36,26.36,0,0,0,61.34,61.43,26.33,26.33,0,0,0,35.47,35.12Z"/><path d="M480.08,52.66a26.32,26.32,0,0,0-24.37-17.54H448.3a8.78,8.78,0,0,1,.45-17.54h28.83V0H448.75a26.31,26.31,0,0,0-.45,52.62h7.41a8.78,8.78,0,0,1-.45,17.54H426.44V87.75h28.82a26.31,26.31,0,0,0,24.82-35.09Z"/><path d="M130.2,26.21A26.21,26.21,0,0,0,104,0H77.78V62.61A26.21,26.21,0,0,0,104,88.82h14.24L123,93.54a8.73,8.73,0,0,0,12.35,0l6.18-6.18L130.2,76.09ZM95.25,62.61V17.47H104a8.75,8.75,0,0,1,8.74,8.74V71.35H104A8.75,8.75,0,0,1,95.25,62.61Z"/><path d="M311.66,52.4,298.71,0H281.24l19.59,79.24a11.16,11.16,0,0,0,21.66,0L342.08,0H324.61Z"/></svg>