<svg id="Layer_1" data-name="Layer 1" xmlns="http://www.w3.org/2000/svg" viewBox="0 0 500 500">
    <path class="cls-1" d="M483.15,235.15h-58.4a14.6,14.6,0,0,0-14.6,14.6v93a14.6,14.6,0,1,1-29.2,0v-186a43.81,43.81,0,0,0-87.61,0V445.85a14.6,14.6,0,1,1-29.2,0V9.85h-87.6V357.37h-29.2V112.94H59.74V235.15H15.93a14.6,14.6,0,0,0,0,29.2h73V142.14h29.2V386.57h87.6V39.06h29.2V445.85a43.8,43.8,0,0,0,87.6,0V156.74a14.6,14.6,0,0,1,29.2,0v186a43.81,43.81,0,0,0,87.61,0V264.35h43.8a14.6,14.6,0,1,0,0-29.2Z"/>
</svg>